<svg class="svg-icon" style="width: 1em; height: 1em;vertical-align: middle;fill: currentColor;overflow: hidden;" viewBox="0 0 1024 1024" version="1.1" xmlns="http://www.w3.org/2000/svg"><path d="M112 16h736v992H112z" fill="#EDF2F9" /><path d="M392.176 846.08c8.032 4.528 18.208 2.032 22.704-5.616l159.344-256.496c4.496-7.632 1.648-17.504-6.384-22.048s-18.208-2.032-22.704 5.616l-159.344 256.496c-4.512 7.632-1.648 17.504 6.384 22.048z m204.4-50.672a15.872 15.872 0 0 0 22.48 0l79.344-79.344c0.336-0.288 0.752-0.384 1.056-0.704a15.776 15.776 0 0 0 4.592-11.52 15.776 15.776 0 0 0-4.656-11.248c-0.208-0.208-0.48-0.288-0.704-0.464l-79.6-79.6a15.872 15.872 0 1 0-22.464 22.464l68.944 68.944-68.992 68.992a15.888 15.888 0 0 0 0 22.48z m-335.024-79.376l79.376 79.376a15.84 15.84 0 0 0 22.464 0 15.84 15.84 0 0 0 0-22.464L294.4 703.952l68.944-68.944a15.872 15.872 0 1 0-22.464-22.464l-79.568 79.568c-0.224 0.208-0.528 0.288-0.736 0.496a15.888 15.888 0 0 0-4.656 11.264 15.76 15.76 0 0 0 4.608 11.504c0.304 0.288 0.704 0.384 1.024 0.656zM896 128h-32V32a32 32 0 0 0-32-32H128a32 32 0 0 0-32 32v960a32 32 0 0 0 32 32h704a32 32 0 0 0 32-32V416h32a32 32 0 0 0 32-32V160a32 32 0 0 0-32-32z m-64 0H352a32 32 0 0 0-32 32v224a32 32 0 0 0 32 32h480v576H128V32h704v96z" fill="#8592A5" /><path d="M504.992 328h-27.2v-49.28h-47.36v49.28h-27.2v-116.56h27.2v48.72h47.36v-48.72h27.2V328zM608.832 211.44v21.44h-32.8V328h-27.024v-95.12h-32.8v-21.44h92.624zM682.72 281.024c0.992 2.192 1.92 4.432 2.832 6.72a142.112 142.112 0 0 1 6-13.296l29.92-58.944a8.976 8.976 0 0 1 1.648-2.352 5.488 5.488 0 0 1 4.24-1.648h23.712v116.48h-23.84v-67.04c0-3.248 0.16-6.768 0.48-10.56l-30.896 59.92c-0.96 1.872-2.256 3.28-3.872 4.24s-3.488 1.44-5.568 1.44h-3.664a10.128 10.128 0 0 1-9.456-5.68l-31.024-60a110.448 110.448 0 0 1 0.64 10.64v67.04h-23.84v-116.48h23.712c0.864 0 1.664 0.128 2.352 0.4s1.328 0.672 1.872 1.248a10.144 10.144 0 0 1 1.648 2.352l30 59.184c1.088 2.048 2.096 4.16 3.104 6.336zM797.312 306.4h43.2v21.6h-70.256v-116.56h27.04v94.96z" fill="#FFFFFF" /></svg>