<svg xmlns="http://www.w3.org/2000/svg" id="Layer_2" data-name="Layer 2" viewBox="0 0 2050 2050">
    <defs fill="#000000">
        <style>
            .cls-1{fill:#4d4c78}.cls-7{fill:#f4a93f}.cls-12{fill:#83d0fb}.cls-17{fill:#dfdafd}
        </style>
    </defs>
    <rect width="1911.2" height="120.02" x="69.4" y="1589.3" class="cls-1" rx="60" ry="60" fill="#000000"/>
    <path fill="#323150" d="M1920.6 1589.3H154.9c-.1 1.3-.1 2.6-.1 3.9a60 60 0 0 0 60 60.1h1765.6c.1-1.4.2-2.7.2-4a60 60 0 0 0-60-60z"/>
    <path fill="#009788" d="m1341.761064 441.7267867 269.1479589-47.45804695 201.11237344 1140.56494722-269.1479589 47.45804696zM237.1 340.7h295.6v1252.55H237.1z"/>
    <path fill="#f44533" d="M1017.2 340.7h295.6v1252.55h-295.6z"/>
    <path fill="#de3226" d="M1017.2 1593.2h295.6V340.7h-50v1195.7h-245.6v56.8z"/>
    <path fill="#f4c23f" d="M532.7 426.8h242.6v1166.42H532.7z"/>
    <path d="M711.9 426.8V1371c0 98.9-80.2 179.2-179.2 179.2v43h242.6V426.8z" class="cls-7" fill="#000000"/>
    <path fill="#c8c2e9" d="M774.6 503.8h242.6v1089.46H774.6z"/>
    <path fill="#b9b1e0" d="M970.7 503.8v854.9c0 108.3-87.8 196.1-196.1 196.1v38.4h242.6V503.8z"/>
    <path d="M237.1 538.2h295.6v87.09H237.1zm0 770.5h295.6v87.09H237.1z" class="cls-1" fill="#000000"/>
    <path d="M618.1 600.4h60.7v847.15h-60.7z" class="cls-7" fill="#000000"/>
    <path d="M950.7 678.9H841.1a20 20 0 0 1 0-40h109.6a20 20 0 0 1 0 40zm0 101.3H841.1a20 20 0 0 1 0-40h109.6a20 20 0 0 1 0 40zm0 101.2H841.1a20 20 0 0 1 0-40h109.6a20 20 0 0 1 0 40zm-18.8 607.2h-72a20 20 0 0 1 0-40h72a20 20 0 1 1 0 40z" class="cls-1" fill="#000000"/>
    <path fill="#942334" d="M1110.3 1401.7a20.1 20.1 0 0 1-20-20V552.3a20 20 0 0 1 40 0v829.4a20 20 0 0 1-20 20zm109.3 0a20 20 0 0 1-20-20V552.3a20 20 0 0 1 40 0v829.4a20.1 20.1 0 0 1-20 20z"/>
    <path d="M1786.1 1382.3 1517 1430l7 39.4 269.1-47.7-7-39.4zm-424.66854519-828.90855356 269.1479589-47.45804695 6.9459271 39.39231012-269.1479589 47.45804695zM1682.1 794.6l-7-39.3-269.1 47.6 7 39.4 269.1-47.7zm66.7 376.6-7-39.4-269.2 47.7 7 39.4 269.2-47.7z" class="cls-1" fill="#000000"/>
    <path fill="#323150" d="M447.3 1319.3V340.7h85.4v1252.5H237.1v-63.7c116.1 0 210.2-94.1 210.2-210.2zM1611 393l-68.5 12.2 158.7 896.8c18.8 106-51.9 207.2-158 225.9l-8.6 1.6 9.1 51.6 269.2-47.6z" opacity=".1"/>
    <rect width="64.8" height="524.76" x="237.1" y="720.7" class="cls-12" rx="32.4" ry="32.4" fill="#000000"/>
    <g opacity=".2">
        <rect width="72.2" height="584.09" x="1436.6" y="662.2" fill="#fff" rx="36.1" ry="36.1" transform="rotate(-10 1478.587 957.47)"/>
        <path fill="#231f20" d="M1517.2 1242.9a36.6 36.6 0 0 1-36-30.3L1392 708.5a36.6 36.6 0 0 1 29.6-42.4 36.7 36.7 0 0 1 42.5 29.7l89.2 504.1a36.6 36.6 0 0 1-29.6 42.4 35.7 35.7 0 0 1-6.5.6zM1428 666.6a33.4 33.4 0 0 0-6.2.6 35.4 35.4 0 0 0-28.7 41.2l89.2 504a35.6 35.6 0 0 0 41.2 28.8 35.4 35.4 0 0 0 28.7-41.1L1463 696a35.6 35.6 0 0 0-35-29.4z"/>
    </g>
    <rect width="64.8" height="133.95" x="237.1" y="370.8" class="cls-12" rx="32.4" ry="32.4" fill="#000000"/>
    <rect width="48.6" height="586.49" x="532.7" y="446.9" fill="#fad564" rx="24.3" ry="24.3"/>
    <rect width="46.5" height="331.71" x="774.6" y="947.6" class="cls-17" rx="23.2" ry="23.2" fill="#000000"/>
    <rect width="121.3" height="57.13" x="774.6" y="503.8" class="cls-17" rx="19.2" ry="19.2" fill="#000000"/>
    <rect width="38.9" height="755.16" x="1017.2" y="503.8" fill="#f46253" rx="19.4" ry="19.4"/>
</svg>